{"asset":{"version":"2.0","generator":"Blockbench 5.1.4 glTF exporter"},"scenes":[{"nodes":[11],"name":"blockbench_export"}],"scene":0,"nodes":[{"translation":[-0.109375,-0.3125,0.390625],"name":"left_stalk","mesh":0},{"translation":[0.09375,0.18750000000000003,-0.125],"name":"left_eye","children":[0]},{"translation":[0.109375,-0.3125,0.390625],"name":"right_stalk","mesh":1},{"translation":[-0.09375,0.18750000000000003,-0.125],"name":"right_eye","children":[2]},{"translation":[0.03125,-0.125,0.3125],"name":"head_base","mesh":2},{"translation":[0,0.09375,-0.21875],"name":"head","children":[1,3,4]},{"translation":[-0.03125,-0.0625,0],"name":"body_base","mesh":3},{"name":"bodybase","children":[6]},{"translation":[0,0.0625,0],"name":"body","children":[5,7]},{"translation":[-0.03125,-0.25,-0.125],"name":"shell_cube","mesh":4},{"translation":[0,0.25,0.125],"name":"shell","children":[9]},{"translation":[0,-0.00625,0],"name":"snail","children":[8,10]}],"bufferViews":[{"buffer":0,"byteOffset":0,"byteLength":288,"target":34962,"byteStride":12},{"buffer":0,"byteOffset":288,"byteLength":288,"target":34962,"byteStride":12},{"buffer":0,"byteOffset":576,"byteLength":192,"target":34962,"byteStride":8},{"buffer":0,"byteOffset":768,"byteLength":72,"target":34963},{"buffer":0,"byteOffset":840,"byteLength":288,"target":34962,"byteStride":12},{"buffer":0,"byteOffset":1128,"byteLength":288,"target":34962,"byteStride":12},{"buffer":0,"byteOffset":1416,"byteLength":192,"target":34962,"byteStride":8},{"buffer":0,"byteOffset":1608,"byteLength":72,"target":34963},{"buffer":0,"byteOffset":1680,"byteLength":288,"target":34962,"byteStride":12},{"buffer":0,"byteOffset":1968,"byteLength":288,"target":34962,"byteStride":12},{"buffer":0,"byteOffset":2256,"byteLength":192,"target":34962,"byteStride":8},{"buffer":0,"byteOffset":2448,"byteLength":72,"target":34963},{"buffer":0,"byteOffset":2520,"byteLength":288,"target":34962,"byteStride":12},{"buffer":0,"byteOffset":2808,"byteLength":288,"target":34962,"byteStride":12},{"buffer":0,"byteOffset":3096,"byteLength":192,"target":34962,"byteStride":8},{"buffer":0,"byteOffset":3288,"byteLength":72,"target":34963},{"buffer":0,"byteOffset":3360,"byteLength":288,"target":34962,"byteStride":12},{"buffer":0,"byteOffset":3648,"byteLength":288,"target":34962,"byteStride":12},{"buffer":0,"byteOffset":3936,"byteLength":192,"target":34962,"byteStride":8},{"buffer":0,"byteOffset":4128,"byteLength":72,"target":34963},{"buffer":0,"byteOffset":4200,"byteLength":156},{"buffer":0,"byteOffset":4356,"byteLength":468},{"buffer":0,"byteOffset":4824,"byteLength":148},{"buffer":0,"byteOffset":4972,"byteLength":592},{"buffer":0,"byteOffset":5564,"byteLength":156},{"buffer":0,"byteOffset":5720,"byteLength":624},{"buffer":0,"byteOffset":6344,"byteLength":152},{"buffer":0,"byteOffset":6496,"byteLength":608},{"buffer":0,"byteOffset":7104,"byteLength":156},{"buffer":0,"byteOffset":7260,"byteLength":468}],"buffers":[{"byteLength":7728,"uri":"data:application/octet-stream;base64,"}],"accessors":[{"bufferView":0,"componentType":5126,"count":24,"max":[0.125,0.375,-0.4375],"min":[0.0625,0.1875,-0.5],"type":"VEC3"},{"bufferView":1,"componentType":5126,"count":24,"max":[1,1,1],"min":[-1,-1,-1],"type":"VEC3"},{"bufferView":2,"componentType":5126,"count":24,"max":[0.56201171875,0.90576171875],"min":[0.43798828125,0.78173828125],"type":"VEC2"},{"bufferView":3,"componentType":5123,"count":36,"max":[23],"min":[0],"type":"SCALAR"},{"bufferView":4,"componentType":5126,"count":24,"max":[-0.0625,0.375,-0.4375],"min":[-0.125,0.1875,-0.5],"type":"VEC3"},{"bufferView":5,"componentType":5126,"count":24,"max":[1,1,1],"min":[-1,-1,-1],"type":"VEC3"},{"bufferView":6,"componentType":5126,"count":24,"max":[0.68701171875,0.90576171875],"min":[0.56298828125,0.78173828125],"type":"VEC2"},{"bufferView":7,"componentType":5123,"count":36,"max":[23],"min":[0],"type":"SCALAR"},{"bufferView":8,"componentType":5126,"count":24,"max":[0.09375,0.1875,-0.375],"min":[-0.15625,-6.938893903907228e-18,-0.5625],"type":"VEC3"},{"bufferView":9,"componentType":5126,"count":24,"max":[1,1,1],"min":[-1,-1,-1],"type":"VEC3"},{"bufferView":10,"componentType":5126,"count":24,"max":[0.43701171875,0.96826171875],"min":[0.00048828125,0.78173828125],"type":"VEC2"},{"bufferView":11,"componentType":5123,"count":36,"max":[23],"min":[0],"type":"SCALAR"},{"bufferView":12,"componentType":5126,"count":24,"max":[0.1875,0.125,0.1875],"min":[-0.125,1.734723475976807e-18,-0.375],"type":"VEC3"},{"bufferView":13,"componentType":5126,"count":24,"max":[1,1,1],"min":[-1,-1,-1],"type":"VEC3"},{"bufferView":14,"componentType":5126,"count":24,"max":[0.87451171875,0.78076171875],"min":[0.00048828125,0.43798828125],"type":"VEC2"},{"bufferView":15,"componentType":5123,"count":36,"max":[23],"min":[0],"type":"SCALAR"},{"bufferView":16,"componentType":5126,"count":24,"max":[0.25,0.5625,0.3125],"min":[-0.1875,0.125,-0.125],"type":"VEC3"},{"bufferView":17,"componentType":5126,"count":24,"max":[1,1,1],"min":[-1,-1,-1],"type":"VEC3"},{"bufferView":18,"componentType":5126,"count":24,"max":[0.87451171875,0.43701171875],"min":[0.00048828125,0.00048828125],"type":"VEC2"},{"bufferView":19,"componentType":5123,"count":36,"max":[23],"min":[0],"type":"SCALAR"},{"bufferView":20,"componentType":5126,"count":39,"max":[2],"min":[0],"type":"SCALAR"},{"bufferView":21,"componentType":5126,"count":39,"max":[0,0.06875000149011612,0],"min":[0,0.0625,-0.01875000074505806],"type":"VEC3"},{"bufferView":22,"componentType":5126,"count":37,"max":[2],"min":[0],"type":"SCALAR"},{"bufferView":23,"componentType":5126,"count":37,"max":[0.02617296203970909,0.017446426674723625,0.0004568507429212332,1],"min":[0,-0.017446426674723625,-0.0004568507429212332,0.9995050430297852],"type":"VEC4"},{"bufferView":24,"componentType":5126,"count":39,"max":[2],"min":[0],"type":"SCALAR"},{"bufferView":25,"componentType":5126,"count":39,"max":[0.0275657270103693,0.0011496845399960876,0.018205931410193443,1],"min":[-0.04368468374013901,0,-0.02628355287015438,0.998698890209198],"type":"VEC4"},{"bufferView":26,"componentType":5126,"count":38,"max":[2],"min":[0],"type":"SCALAR"},{"bufferView":27,"componentType":5126,"count":38,"max":[0.027561139315366745,0.0007958112400956452,0.02616797760128975,1],"min":[-0.04396874085068703,-0.000047707926569273695,-0.01822945661842823,0.9988697171211243],"type":"VEC4"},{"bufferView":28,"componentType":5126,"count":39,"max":[2],"min":[0],"type":"SCALAR"},{"bufferView":29,"componentType":5126,"count":39,"max":[0,0.2562499940395355,0.125],"min":[0,0.25,0.10625000298023224],"type":"VEC3"}],"materials":[{"pbrMetallicRoughness":{"metallicFactor":0,"roughnessFactor":1,"baseColorTexture":{"index":0}},"alphaMode":"MASK","alphaCutoff":0.05,"doubleSided":true}],"textures":[{"sampler":0,"source":0,"name":"texture.png"}],"samplers":[{"magFilter":9728,"minFilter":9728,"wrapS":33071,"wrapT":33071}],"images":[{"mimeType":"image/png","uri":"data:image/png;base64,"}],"meshes":[{"primitives":[{"mode":4,"attributes":{"POSITION":0,"NORMAL":1,"TEXCOORD_0":2},"indices":3,"material":0}]},{"primitives":[{"mode":4,"attributes":{"POSITION":4,"NORMAL":5,"TEXCOORD_0":6},"indices":7,"material":0}]},{"primitives":[{"mode":4,"attributes":{"POSITION":8,"NORMAL":9,"TEXCOORD_0":10},"indices":11,"material":0}]},{"primitives":[{"mode":4,"attributes":{"POSITION":12,"NORMAL":13,"TEXCOORD_0":14},"indices":15,"material":0}]},{"primitives":[{"mode":4,"attributes":{"POSITION":16,"NORMAL":17,"TEXCOORD_0":18},"indices":19,"material":0}]}],"animations":[{"name":"animation.snail.idle","samplers":[{"input":20,"output":21,"interpolation":"LINEAR"},{"input":22,"output":23,"interpolation":"LINEAR"},{"input":24,"output":25,"interpolation":"LINEAR"},{"input":26,"output":27,"interpolation":"LINEAR"},{"input":28,"output":29,"interpolation":"LINEAR"}],"channels":[{"sampler":0,"target":{"node":8,"path":"translation"}},{"sampler":1,"target":{"node":5,"path":"rotation"}},{"sampler":2,"target":{"node":1,"path":"rotation"}},{"sampler":3,"target":{"node":3,"path":"rotation"}},{"sampler":4,"target":{"node":10,"path":"translation"}}]}]}